<svg width="58" height="46" viewBox="0 0 58 46" fill="none" xmlns="http://www.w3.org/2000/svg">
<path d="M22.7172 17.3117H20.4103C19.0533 17.3117 18.3748 18.018 18.3748 19.4305V20.7086C18.3748 22.0539 19.0419 22.7265 20.3763 22.7265H22.785C24.1194 22.7265 24.7866 21.8969 24.7866 20.2377V18.9933C24.7866 17.8722 24.0968 17.3117 22.7172 17.3117ZM24.7866 28.6122V25.6526C24.7866 24.5539 24.0968 24.0046 22.7172 24.0046H20.4103C19.0533 24.0046 18.3748 24.5539 18.3748 25.6526V28.6459C18.3748 29.8118 17.979 30.3948 17.1874 30.3948C16.3958 30.3948 16 29.8679 16 28.814V18.4215C16 16.8072 16.8255 16 18.4765 16H24.3456C26.2228 16 27.1614 16.8072 27.1614 18.4215V28.7804C27.1614 29.8566 26.7656 30.3948 25.974 30.3948C25.1824 30.3948 24.7866 29.8006 24.7866 28.6122Z" fill="#E5E5E5"/>
<path d="M39.6368 27.3678C39.6368 27.1436 39.7272 26.953 39.9082 26.7961C40.0891 26.6391 40.3944 26.5606 40.8242 26.5606C41.6157 26.5606 42.0115 26.9194 42.0115 27.6369V28.2086C42.0115 29.6885 41.1521 30.4284 39.4332 30.4284H33.3267C31.6757 30.4284 30.8502 29.6324 30.8502 28.0405V18.4552C30.8502 16.8184 31.687 16 33.3606 16H39.4332C41.1521 16 42.0115 16.7399 42.0115 18.2198V18.7242C42.0115 19.5314 41.6157 19.935 40.8242 19.935C40.0326 19.935 39.6368 19.6772 39.6368 19.1615C39.6368 17.9283 38.947 17.3117 37.5673 17.3117H35.2604C33.9034 17.3117 33.2249 17.8946 33.2249 19.0606V27.4687C33.2249 28.6122 33.8921 29.184 35.2265 29.184H37.6352C38.9696 29.184 39.6368 28.5786 39.6368 27.3678Z" fill="#E5E5E5"/>
</svg>
