<svg width="58" height="46" viewBox="0 0 58 46" fill="none" xmlns="http://www.w3.org/2000/svg">
<path d="M17.42 22.3831C16.7173 22.3831 16.2187 22.5892 15.924 23.0016C15.6293 23.3911 15.482 23.9752 15.482 24.7542V28.6373C15.482 30.0347 16.1053 30.7335 17.352 30.7335C17.896 30.7335 18.2473 30.6533 18.406 30.4929C18.5647 30.3096 18.6667 30.1149 18.712 29.9087C18.78 29.6796 18.8707 29.4849 18.984 29.3245C19.12 29.1642 19.426 29.084 19.902 29.084C20.718 29.084 21.126 29.588 21.126 30.596C21.126 31.0771 20.9107 31.4207 20.48 31.6269C20.0493 31.8102 19.4033 31.9018 18.542 31.9018H15.584C13.8613 31.9018 13 31.1115 13 29.5307V23.5171C13.0453 21.9592 13.9407 21.1803 15.686 21.1803H18.542C19.4033 21.1803 20.0493 21.3063 20.48 21.5583C20.9107 21.7874 21.126 22.0738 21.126 22.4174C21.126 23.3796 20.718 23.8607 19.902 23.8607C19.4033 23.8607 19.086 23.792 18.95 23.6545C18.814 23.4942 18.7007 23.3223 18.61 23.1391C18.542 22.9329 18.44 22.7611 18.304 22.6236C18.1907 22.4632 17.896 22.3831 17.42 22.3831Z" fill="#E5E5E5"/>
<path d="M32.8555 29.5307C32.8555 30.3784 32.6288 30.9855 32.1755 31.352C31.7448 31.7185 31.1101 31.9018 30.2715 31.9018H27.4495C25.6361 31.9018 24.7295 31.1115 24.7295 29.5307V23.5858C24.7295 22.8527 24.9448 22.2685 25.3755 21.8332C25.8061 21.398 26.4748 21.1803 27.3815 21.1803H30.2715C31.1101 21.1803 31.7448 21.398 32.1755 21.8332C32.6288 22.2685 32.8555 22.8642 32.8555 23.6202V29.5307ZM30.4075 28.6373V24.4449C30.4075 23.0932 29.9315 22.4174 28.9795 22.4174H28.5375C27.6535 22.4174 27.2115 23.1505 27.2115 24.6167V28.6716C27.2115 30.0462 27.6648 30.7335 28.5715 30.7335H29.0815C29.9655 30.7335 30.4075 30.0347 30.4075 28.6373Z" fill="#E5E5E5"/>
<path d="M41.4229 27.0222H39.2129C37.3316 27.0222 36.3909 26.3693 36.3909 25.0634V23.6202C36.3909 21.9936 37.2976 21.1803 39.1109 21.1803H42.9189C43.7803 21.1803 44.2109 21.3636 44.2109 21.7301C44.2109 22.1654 43.7576 22.3831 42.8509 22.3831H39.8249C39.1676 22.3831 38.8389 22.7611 38.8389 23.5171V25.0291C38.8389 25.6247 39.1676 25.9225 39.8249 25.9225H41.7629C43.4856 25.9225 44.4149 26.6327 44.5509 28.0531V29.4276C44.5509 31.0771 43.6556 31.9018 41.8649 31.9018H37.6489C36.8103 31.9018 36.3909 31.6842 36.3909 31.2489C36.3909 30.8365 36.8443 30.6304 37.7509 30.6304H41.4229C42.0803 30.6304 42.4089 30.2638 42.4089 29.5307V27.9844C42.4089 27.3429 42.0803 27.0222 41.4229 27.0222Z" fill="#E5E5E5"/>
<path d="M43.5838 17.2639H40.4898C40.1432 17.2639 39.9698 17.1675 39.9698 16.9748C39.9698 16.7733 40.1475 16.6726 40.5028 16.6726H43.5838C43.9305 16.6726 44.1038 16.7733 44.1038 16.9748C44.1038 17.1675 43.9305 17.2639 43.5838 17.2639Z" fill="#E5E5E5"/>
<path d="M47.6348 19.1822V15.3456C47.6348 15.1091 47.5785 14.9514 47.4658 14.8726C47.3532 14.785 47.2275 14.728 47.0888 14.7017C46.9502 14.6667 46.8202 14.636 46.6988 14.6098C46.5862 14.5835 46.5298 14.5134 46.5298 14.3995C46.5298 14.2331 46.6945 14.1499 47.0238 14.1499H47.5828C48.2588 14.1499 48.5968 14.4609 48.5968 15.0828V19.2347C48.5968 19.6727 48.4365 19.8917 48.1158 19.8917C47.7952 19.8917 47.6348 19.6552 47.6348 19.1822Z" fill="#E5E5E5"/>
</svg>
