<svg width="58" height="46" viewBox="0 0 58 46" fill="none" xmlns="http://www.w3.org/2000/svg">
<path d="M31.1937 23.6346C30.1986 23.6346 29.701 24.1055 29.701 25.0472V28.7131C29.701 29.6324 29.3844 30.0921 28.7511 30.0921C28.1178 30.0921 27.8012 29.6324 27.8012 28.7131V25.0472C27.8012 24.1055 27.3149 23.6346 26.3424 23.6346H23.0517C22.3506 23.6346 22 23.3768 22 22.8611C22 22.3454 22.3506 22.0875 23.0517 22.0875H26.3424C27.3149 22.0875 27.8012 21.6054 27.8012 20.6413V17.3453C27.8012 16.4484 28.1178 16 28.7511 16C29.3844 16 29.701 16.4484 29.701 17.3453V20.6413C29.701 21.6054 30.1986 22.0875 31.1937 22.0875H34.4505C35.1742 22.0875 35.5361 22.3454 35.5361 22.8611C35.5361 23.3768 35.1742 23.6346 34.4505 23.6346H31.1937Z" fill="#E5E5E5"/>
</svg>
