<svg width="58" height="46" viewBox="0 0 58 46" fill="none" xmlns="http://www.w3.org/2000/svg">
<path d="M21.032 26.736H18.822C16.9407 26.736 16 26.09 16 24.798V23.37C16 21.7607 16.9067 20.956 18.72 20.956H22.528C23.3893 20.956 23.82 21.1373 23.82 21.5C23.82 21.9307 23.3667 22.146 22.46 22.146H19.434C18.7767 22.146 18.448 22.52 18.448 23.268V24.764C18.448 25.3533 18.7767 25.648 19.434 25.648H21.372C23.0947 25.648 24.024 26.3507 24.16 27.756V29.116C24.16 30.748 23.2647 31.564 21.474 31.564H17.258C16.4193 31.564 16 31.3487 16 30.918C16 30.51 16.4533 30.306 17.36 30.306H21.032C21.6893 30.306 22.018 29.9433 22.018 29.218V27.688C22.018 27.0533 21.6893 26.736 21.032 26.736Z" fill="#E5E5E5"/>
<path d="M29.2595 17.998C28.3981 17.998 27.9675 17.692 27.9675 17.08C27.9675 16.468 28.3981 16.162 29.2595 16.162C30.0755 16.162 30.4835 16.468 30.4835 17.08C30.4835 17.692 30.0755 17.998 29.2595 17.998ZM29.2595 31.7C28.4208 31.7 28.0015 31.1787 28.0015 30.136V22.622C28.0015 21.5567 28.4208 21.024 29.2595 21.024C30.0528 21.024 30.4495 21.534 30.4495 22.554V30.102C30.4495 31.1673 30.0528 31.7 29.2595 31.7Z" fill="#E5E5E5"/>
<path d="M39.9565 24.084C39.9565 22.8147 39.4805 22.18 38.5285 22.18H38.0865C37.1798 22.18 36.7265 22.86 36.7265 24.22V29.898C36.7265 31.0993 36.3298 31.7 35.5365 31.7C34.6751 31.7 34.2445 31.1787 34.2445 30.136V23.336C34.2445 22.6107 34.4598 22.0327 34.8905 21.602C35.3438 21.1713 36.0238 20.956 36.9305 20.956H39.8205C40.6591 20.956 41.2938 21.1713 41.7245 21.602C42.1778 22.01 42.4045 22.5767 42.4045 23.302V30.068C42.4045 31.156 41.9851 31.7 41.1465 31.7C40.3531 31.7 39.9565 31.0993 39.9565 29.898V24.084Z" fill="#E5E5E5"/>
<path d="M41.9467 17.081H38.8527C38.506 17.081 38.3327 16.9857 38.3327 16.795C38.3327 16.5957 38.5103 16.496 38.8657 16.496H41.9467C42.2933 16.496 42.4667 16.5957 42.4667 16.795C42.4667 16.9857 42.2933 17.081 41.9467 17.081Z" fill="#E5E5E5"/>
<path d="M45.9977 18.979V15.183C45.9977 14.949 45.9414 14.793 45.8287 14.715C45.716 14.6283 45.5904 14.572 45.4517 14.546C45.313 14.5113 45.183 14.481 45.0617 14.455C44.949 14.429 44.8927 14.3597 44.8927 14.247C44.8927 14.0823 45.0574 14 45.3867 14H45.9457C46.6217 14 46.9597 14.3077 46.9597 14.923V19.031C46.9597 19.4643 46.7994 19.681 46.4787 19.681C46.158 19.681 45.9977 19.447 45.9977 18.979Z" fill="#E5E5E5"/>
</svg>
