<svg width="58" height="46" viewBox="0 0 58 46" fill="none" xmlns="http://www.w3.org/2000/svg">
<path d="M16.258 16.264C17.0513 16.264 17.448 16.8533 17.448 18.032V19.154C17.448 20.3553 18.1053 20.956 19.42 20.956H20.066C20.9727 20.956 21.426 21.1487 21.426 21.534C21.426 21.942 20.9727 22.146 20.066 22.146H19.42C18.1053 22.146 17.448 22.9393 17.448 24.526V28.266C17.448 29.6033 18.094 30.272 19.386 30.272H20.202C21.086 30.272 21.528 30.4873 21.528 30.918C21.528 31.3487 21.12 31.564 20.304 31.564H17.482C15.8273 31.564 15 30.7367 15 29.082V17.862C15 16.7967 15.4193 16.264 16.258 16.264Z" fill="#E5E5E5"/>
<path d="M28.3952 20.31H25.5052C24.6439 20.31 24.2132 20.106 24.2132 19.698C24.2132 19.3127 24.6212 19.12 25.4372 19.12H29.4832C31.1605 19.12 31.9992 19.9813 31.9992 21.704V29.116C31.9992 30.748 31.1605 31.564 29.4832 31.564H26.6272C24.7912 31.564 23.8732 30.8953 23.8732 29.558V25.138C23.8732 24.5713 24.0885 24.118 24.5192 23.778C24.9499 23.4153 25.6185 23.234 26.5252 23.234H28.3272C29.1432 23.234 29.5512 22.826 29.5512 22.01V21.67C29.5512 20.7633 29.1659 20.31 28.3952 20.31ZM26.2872 26.056V28.64C26.2872 29.8187 26.8425 30.408 27.9532 30.408C29.0185 30.408 29.5512 29.8187 29.5512 28.64V26.056C29.5512 24.9453 29.0185 24.39 27.9532 24.39C26.8425 24.39 26.2872 24.9453 26.2872 26.056Z" fill="#E5E5E5"/>
<path d="M41.2467 24.084C41.2467 22.8147 40.7707 22.18 39.8187 22.18H39.3767C38.47 22.18 38.0167 22.86 38.0167 24.22V29.898C38.0167 31.0993 37.62 31.7 36.8267 31.7C35.9653 31.7 35.5347 31.1787 35.5347 30.136V23.336C35.5347 22.6107 35.75 22.0327 36.1807 21.602C36.634 21.1713 37.314 20.956 38.2207 20.956H41.1107C41.9493 20.956 42.584 21.1713 43.0147 21.602C43.468 22.01 43.6947 22.5767 43.6947 23.302V30.068C43.6947 31.156 43.2753 31.7 42.4367 31.7C41.6433 31.7 41.2467 31.0993 41.2467 29.898V24.084Z" fill="#E5E5E5"/>
<path d="M43.0748 17.081H39.9808C39.6341 17.081 39.4608 16.9857 39.4608 16.795C39.4608 16.5957 39.6385 16.496 39.9938 16.496H43.0748C43.4215 16.496 43.5948 16.5957 43.5948 16.795C43.5948 16.9857 43.4215 17.081 43.0748 17.081Z" fill="#E5E5E5"/>
<path d="M47.1258 18.979V15.183C47.1258 14.949 47.0695 14.793 46.9568 14.715C46.8441 14.6283 46.7185 14.572 46.5798 14.546C46.4411 14.5113 46.3111 14.481 46.1898 14.455C46.0771 14.429 46.0208 14.3597 46.0208 14.247C46.0208 14.0823 46.1855 14 46.5148 14H47.0738C47.7498 14 48.0878 14.3077 48.0878 14.923V19.031C48.0878 19.4643 47.9275 19.681 47.6068 19.681C47.2861 19.681 47.1258 19.447 47.1258 18.979Z" fill="#E5E5E5"/>
</svg>
