<svg width="58" height="46" viewBox="0 0 58 46" fill="none" xmlns="http://www.w3.org/2000/svg">
<path d="M26.34 14.496C26.1133 14.496 26 14.3033 26 13.918C26 13.6233 26.0907 13.3967 26.272 13.238C26.4533 13.0793 26.85 13 27.462 13C27.9607 13 28.4367 13.1247 28.89 13.374C29.366 13.6233 29.7853 13.9293 30.148 14.292C30.5107 14.632 30.794 14.9947 30.998 15.38C31.2247 15.7427 31.338 16.0487 31.338 16.298V29.728C31.338 30.0453 31.2247 30.3853 30.998 30.748C30.794 31.1333 30.5107 31.4847 30.148 31.802C29.7853 32.142 29.366 32.414 28.89 32.618C28.4367 32.822 27.9607 32.924 27.462 32.924C26.4873 32.924 26 32.6747 26 32.176C26 31.7 26.1247 31.4507 26.374 31.428C28.0513 31.428 28.89 30.6913 28.89 29.218V16.74C28.89 15.244 28.04 14.496 26.34 14.496Z" fill="#E5E5E5"/>
</svg>
