<svg width="58" height="46" viewBox="0 0 58 46" fill="none" xmlns="http://www.w3.org/2000/svg">
<path d="M30.862 14.496C29.23 14.496 28.414 15.244 28.414 16.74V29.218C28.414 30.6913 29.2073 31.428 30.794 31.428C30.9753 31.4507 31.1227 31.7 31.236 32.176C31.236 32.6747 30.7373 32.924 29.74 32.924C29.2187 32.924 28.72 32.822 28.244 32.618C27.7907 32.414 27.394 32.1533 27.054 31.836C26.714 31.5187 26.4533 31.1673 26.272 30.782C26.0907 30.4193 26 30.0793 26 29.762V16.298C26 16.0487 26.0907 15.7313 26.272 15.346C26.4533 14.9607 26.7027 14.598 27.02 14.258C27.36 13.918 27.7567 13.6233 28.21 13.374C28.686 13.1247 29.196 13 29.74 13C30.7373 13 31.236 13.238 31.236 13.714C31.236 14.2353 31.1113 14.496 30.862 14.496Z" fill="#E5E5E5"/>
</svg>
