<svg width="58" height="46" viewBox="0 0 58 46" fill="none" xmlns="http://www.w3.org/2000/svg">
<path d="M17.42 19.19C16.7173 19.19 16.2187 19.394 15.924 19.802C15.6293 20.1873 15.482 20.7653 15.482 21.536V25.378C15.482 26.7607 16.1053 27.452 17.352 27.452C17.896 27.452 18.2473 27.3727 18.406 27.214C18.5647 27.0327 18.6667 26.84 18.712 26.636C18.78 26.4093 18.8707 26.2167 18.984 26.058C19.12 25.8993 19.426 25.82 19.902 25.82C20.718 25.82 21.126 26.3187 21.126 27.316C21.126 27.792 20.9107 28.132 20.48 28.336C20.0493 28.5173 19.4033 28.608 18.542 28.608H15.584C13.8613 28.608 13 27.826 13 26.262V20.312C13.0453 18.7707 13.9407 18 15.686 18H18.542C19.4033 18 20.0493 18.1247 20.48 18.374C20.9107 18.6007 21.126 18.884 21.126 19.224C21.126 20.176 20.718 20.652 19.902 20.652C19.4033 20.652 19.086 20.584 18.95 20.448C18.814 20.2893 18.7007 20.1193 18.61 19.938C18.542 19.734 18.44 19.564 18.304 19.428C18.1907 19.2693 17.896 19.19 17.42 19.19Z" fill="#E5E5E5"/>
<path d="M32.8555 26.262C32.8555 27.1007 32.6288 27.7013 32.1755 28.064C31.7448 28.4267 31.1101 28.608 30.2715 28.608H27.4495C25.6361 28.608 24.7295 27.826 24.7295 26.262V20.38C24.7295 19.6547 24.9448 19.0767 25.3755 18.646C25.8061 18.2153 26.4748 18 27.3815 18H30.2715C31.1101 18 31.7448 18.2153 32.1755 18.646C32.6288 19.0767 32.8555 19.666 32.8555 20.414V26.262ZM30.4075 25.378V21.23C30.4075 19.8927 29.9315 19.224 28.9795 19.224H28.5375C27.6535 19.224 27.2115 19.9493 27.2115 21.4V25.412C27.2115 26.772 27.6648 27.452 28.5715 27.452H29.0815C29.9655 27.452 30.4075 26.7607 30.4075 25.378Z" fill="#E5E5E5"/>
<path d="M41.4229 23.78H39.2129C37.3316 23.78 36.3909 23.134 36.3909 21.842V20.414C36.3909 18.8047 37.2976 18 39.1109 18H42.9189C43.7803 18 44.2109 18.1813 44.2109 18.544C44.2109 18.9747 43.7576 19.19 42.8509 19.19H39.8249C39.1676 19.19 38.8389 19.564 38.8389 20.312V21.808C38.8389 22.3973 39.1676 22.692 39.8249 22.692H41.7629C43.4856 22.692 44.4149 23.3947 44.5509 24.8V26.16C44.5509 27.792 43.6556 28.608 41.8649 28.608H37.6489C36.8103 28.608 36.3909 28.3927 36.3909 27.962C36.3909 27.554 36.8443 27.35 37.7509 27.35H41.4229C42.0803 27.35 42.4089 26.9873 42.4089 26.262V24.732C42.4089 24.0973 42.0803 23.78 41.4229 23.78Z" fill="#E5E5E5"/>
</svg>
