<svg width="58" height="46" viewBox="0 0 58 46" fill="none" xmlns="http://www.w3.org/2000/svg">
<path d="M27.421 17.596C27.421 16.6991 28.1291 16 29.0564 16C29.9837 16 30.6938 16.6991 30.6938 17.596C30.6938 18.4928 29.9837 19.1852 29.0564 19.1852C28.1291 19.1852 27.421 18.4928 27.421 17.596ZM27.421 29.1992C27.421 28.3023 28.1291 27.6033 29.0564 27.6033C29.9837 27.6033 30.6938 28.3023 30.6938 29.1992C30.6938 30.0961 29.9837 30.7885 29.0564 30.7885C28.1291 30.7885 27.421 30.0961 27.421 29.1992ZM34.5184 24.3192H23.2892C22.4523 24.3192 22 23.9525 22 23.4144C22 22.8987 22.4297 22.5386 23.2892 22.5386H34.5184C35.5135 22.5386 36.0111 22.8987 36.0111 23.4144C36.0111 23.9525 35.5135 24.3192 34.5184 24.3192Z" fill="#E5E5E5"/>
</svg>
