<svg width="58" height="46" viewBox="0 0 58 46" fill="none" xmlns="http://www.w3.org/2000/svg">
<path d="M28.6 27.952H32.236C33.148 27.952 33.604 28.168 33.604 28.6C33.604 28.984 33.172 29.176 32.308 29.176H27.808C25.936 29.176 25 28.3 25 26.548V18.592C25 16.864 25.96 16 27.88 16H30.868C31.756 16 32.428 16.192 32.884 16.576C33.364 16.936 33.604 17.464 33.604 18.16V22.3C33.604 23.188 33.364 23.824 32.884 24.208C32.428 24.592 31.756 24.784 30.868 24.784H28.672C27.952 24.784 27.592 25.324 27.592 26.404C27.592 27.436 27.928 27.952 28.6 27.952ZM27.592 19.024V21.724C27.592 22.924 28.18 23.524 29.356 23.524C30.46 23.524 31.012 22.924 31.012 21.724V19.024C31.012 17.824 30.46 17.224 29.356 17.224C28.18 17.224 27.592 17.824 27.592 19.024Z" fill="#E5E5E5"/>
</svg>
