<svg width="35" height="46" viewBox="0 0 35 46" fill="none" xmlns="http://www.w3.org/2000/svg">
<path d="M12.0534 36.4077C11.9435 36.292 11.8415 36.2342 11.7473 36.2342C11.6532 36.2342 11.559 36.292 11.4648 36.4077L9.65197 39.2568C9.24388 39.7523 8.89858 40 8.61606 40C8.4591 40 8.31784 39.9257 8.19227 39.777C8.06671 39.6284 8.00392 39.4797 8.00392 39.3311C7.98823 39.1989 8.01962 39.0668 8.0981 38.9347C8.17658 38.8026 8.2629 38.6539 8.35708 38.4887L10.217 35.5158C10.5466 35.0533 10.7114 34.6404 10.7114 34.277C10.7114 33.8971 10.5388 33.509 10.1935 33.1126L8.35708 30.4865C8.2629 30.3378 8.17658 30.2057 8.0981 30.0901C8.01962 29.958 7.98823 29.8258 8.00392 29.6937C8.00392 29.545 8.05886 29.3964 8.16873 29.2477C8.2786 29.0826 8.41986 29 8.59251 29C8.89073 29 9.24388 29.2395 9.65197 29.7185L11.4648 32.295C11.5276 32.3941 11.6296 32.4437 11.7709 32.4437C11.8494 32.4437 11.9435 32.3941 12.0534 32.295L13.8427 29.7185C14.2037 29.2395 14.5412 29 14.8551 29C15.0434 29 15.1847 29.0826 15.2789 29.2477C15.3887 29.3964 15.4437 29.5533 15.4437 29.7185C15.4594 29.8506 15.4358 29.9745 15.373 30.0901C15.326 30.2057 15.2475 30.3378 15.1376 30.4865L13.3248 33.1126C12.9481 33.509 12.7597 33.8971 12.7597 34.277C12.7597 34.6569 12.9402 35.0698 13.3012 35.5158L15.1376 38.4887C15.2475 38.6539 15.326 38.8026 15.373 38.9347C15.4358 39.0503 15.4594 39.1742 15.4437 39.3063C15.4437 39.488 15.3809 39.6532 15.2553 39.8018C15.1298 39.9339 14.9885 40 14.8315 40C14.5333 40 14.2037 39.7523 13.8427 39.2568L12.0534 36.4077Z" fill="#E5E5E5"/>
<path d="M20.9796 36.7694H19.3409C18.8041 36.7694 18.5357 37.1261 18.5357 37.8396V38.4491C18.5357 38.9842 18.7947 39.2518 19.3127 39.2518H21.6294C22.0061 39.2518 22.1944 39.341 22.1944 39.5194C22.1944 39.7077 22.0061 39.8018 21.6294 39.8018H18.6911C17.9283 39.8018 17.5469 39.4847 17.5469 38.8505V37.245C17.5469 36.5514 17.9519 36.2045 18.7618 36.2045H20.4428C20.9513 36.2045 21.2056 35.8577 21.2056 35.164V34.7923C21.2056 34.2671 20.9419 34.0045 20.4145 34.0045H18.0978C17.7306 34.0045 17.5469 33.9153 17.5469 33.7369C17.5469 33.5288 17.7259 33.4248 18.0837 33.4248H21.0361C21.8083 33.4248 22.1944 33.7667 22.1944 34.4505V35.7288C22.1944 36.4225 21.7895 36.7694 20.9796 36.7694Z" fill="#E5E5E5"/>
<path d="M25.1053 34.1036C24.5089 34.1036 24.2107 33.8228 24.2107 33.2613C24.2107 32.6501 24.5089 32.3446 25.1053 32.3446C25.7018 32.3446 26 32.6501 26 33.2613C26 33.8228 25.7018 34.1036 25.1053 34.1036ZM25.1053 39.8514C24.5089 39.8514 24.2107 39.5706 24.2107 39.009C24.2107 38.3814 24.5089 38.0676 25.1053 38.0676C25.7018 38.0676 26 38.3814 26 39.009C26 39.5706 25.7018 39.8514 25.1053 39.8514Z" fill="#E5E5E5"/>
<path d="M12.0534 13.4077C11.9435 13.292 11.8415 13.2342 11.7473 13.2342C11.6532 13.2342 11.559 13.292 11.4648 13.4077L9.65197 16.2568C9.24388 16.7523 8.89858 17 8.61606 17C8.4591 17 8.31784 16.9257 8.19227 16.777C8.06671 16.6284 8.00392 16.4797 8.00392 16.3311C7.98823 16.199 8.01962 16.0668 8.0981 15.9347C8.17658 15.8026 8.2629 15.6539 8.35708 15.4887L10.217 12.5158C10.5466 12.0533 10.7114 11.6404 10.7114 11.277C10.7114 10.8971 10.5388 10.509 10.1935 10.1126L8.35708 7.48649C8.2629 7.33784 8.17658 7.20571 8.0981 7.09009C8.01962 6.95796 7.98823 6.82583 8.00392 6.69369C8.00392 6.54504 8.05886 6.3964 8.16873 6.24775C8.2786 6.08258 8.41986 6 8.59251 6C8.89073 6 9.24388 6.23949 9.65197 6.71847L11.4648 9.29504C11.5276 9.39414 11.6296 9.44369 11.7709 9.44369C11.8494 9.44369 11.9435 9.39414 12.0534 9.29504L13.8427 6.71847C14.2037 6.23949 14.5412 6 14.8551 6C15.0434 6 15.1847 6.08258 15.2789 6.24775C15.3887 6.3964 15.4437 6.5533 15.4437 6.71847C15.4594 6.8506 15.4358 6.97447 15.373 7.09009C15.326 7.20571 15.2475 7.33784 15.1376 7.48649L13.3248 10.1126C12.9481 10.509 12.7597 10.8971 12.7597 11.277C12.7597 11.6569 12.9402 12.0698 13.3012 12.5158L15.1376 15.4887C15.2475 15.6539 15.326 15.8026 15.373 15.9347C15.4358 16.0503 15.4594 16.1742 15.4437 16.3063C15.4437 16.488 15.3809 16.6532 15.2553 16.8018C15.1298 16.9339 14.9885 17 14.8315 17C14.5333 17 14.2037 16.7523 13.8427 16.2568L12.0534 13.4077Z" fill="#E5E5E5"/>
<path d="M19.7223 16.1329V11.7923C19.7223 11.5248 19.6611 11.3464 19.5387 11.2572C19.4163 11.1581 19.2797 11.0937 19.129 11.064C18.9784 11.0243 18.8371 10.9896 18.7053 10.9599C18.5828 10.9302 18.5216 10.8509 18.5216 10.7221C18.5216 10.5338 18.7006 10.4396 19.0584 10.4396H19.6658C20.4004 10.4396 20.7677 10.7914 20.7677 11.495V16.1923C20.7677 16.6878 20.5935 16.9356 20.245 16.9356C19.8966 16.9356 19.7223 16.668 19.7223 16.1329Z" fill="#E5E5E5"/>
<path d="M25.1053 11.1036C24.5089 11.1036 24.2107 10.8228 24.2107 10.2613C24.2107 9.65015 24.5089 9.34459 25.1053 9.34459C25.7018 9.34459 26 9.65015 26 10.2613C26 10.8228 25.7018 11.1036 25.1053 11.1036ZM25.1053 16.8514C24.5089 16.8514 24.2107 16.5706 24.2107 16.009C24.2107 15.3814 24.5089 15.0676 25.1053 15.0676C25.7018 15.0676 26 15.3814 26 16.009C26 16.5706 25.7018 16.8514 25.1053 16.8514Z" fill="#E5E5E5"/>
</svg>
