<svg width="35" height="46" viewBox="0 0 35 46" fill="none" xmlns="http://www.w3.org/2000/svg">
<path d="M14.4951 20.3405C14.5672 20.498 14.6513 20.5767 14.7474 20.5767C14.7954 20.5767 14.8675 20.5204 14.9636 20.408L16.0445 18.4847C16.3328 17.9898 16.585 17.6186 16.8012 17.3712C17.0414 17.1237 17.2937 17 17.5579 17C17.8221 17 18.0143 17.09 18.1344 17.2699C18.2545 17.4274 18.3146 17.6411 18.3146 17.911C18.3146 18.2935 18.2065 18.7209 17.9903 19.1933L16.4049 21.6902C16.0926 21.9826 15.9364 22.2863 15.9364 22.6012C15.9364 22.9611 16.1286 23.2986 16.513 23.6135L18.0984 26.1104C18.3146 26.5603 18.4227 26.8865 18.4227 27.089C18.4227 27.3589 18.3266 27.5726 18.1344 27.7301C17.9422 27.8875 17.7381 27.9663 17.5219 27.9663C17.3057 27.9438 17.0775 27.8425 16.8372 27.6626C16.597 27.4826 16.3688 27.2127 16.1526 26.8528L14.9636 24.727C14.8915 24.6595 14.8194 24.6258 14.7474 24.6258C14.6753 24.6258 14.6032 24.6595 14.5312 24.727L13.3781 26.8528C12.8737 27.6176 12.3933 28 11.9368 28C11.7206 28 11.5045 27.9213 11.2883 27.7638C11.0961 27.5838 11 27.3926 11 27.1902C11 26.8753 11.1321 26.5153 11.3964 26.1104L12.9818 23.6135C13.2941 23.3211 13.4502 22.9949 13.4502 22.635C13.4502 22.3425 13.3301 22.0276 13.0899 21.6902L11.5045 19.1933C11.3603 18.9458 11.2522 18.7209 11.1802 18.5184C11.1321 18.2935 11.0961 18.091 11.0721 17.911C11.0721 17.6636 11.1441 17.4611 11.2883 17.3037C11.4324 17.1237 11.6366 17.0337 11.9008 17.0337C12.4293 17.0337 12.9578 17.5174 13.4862 18.4847L14.4951 20.3405Z" fill="#E5E5E5"/>
<path d="M22.0872 22.6912C21.4786 22.6912 21.1744 22.4363 21.1744 21.9264C21.1744 21.3715 21.4786 21.0941 22.0872 21.0941C22.6957 21.0941 23 21.3715 23 21.9264C23 22.4363 22.6957 22.6912 22.0872 22.6912ZM22.0872 27.91C21.4786 27.91 21.1744 27.6551 21.1744 27.1452C21.1744 26.5753 21.4786 26.2904 22.0872 26.2904C22.6957 26.2904 23 26.5753 23 27.1452C23 27.6551 22.6957 27.91 22.0872 27.91Z" fill="#E5E5E5"/>
</svg>
