<svg width="58" height="46" viewBox="0 0 58 46" fill="none" xmlns="http://www.w3.org/2000/svg">
<path d="M23.224 30.402C22.408 30.402 22 29.858 22 28.77V16.564C22 15.5213 22.408 15 23.224 15C24.0173 15 24.414 15.5213 24.414 16.564V28.77C24.414 29.858 24.0173 30.402 23.224 30.402Z" fill="#E5E5E5"/>
<path d="M34.057 22.752C34.057 21.4827 33.581 20.848 32.629 20.848H32.187C31.2803 20.848 30.827 21.528 30.827 22.888V28.566C30.827 29.7673 30.4303 30.368 29.637 30.368C28.7757 30.368 28.345 29.8467 28.345 28.804V22.004C28.345 21.2787 28.5603 20.7007 28.991 20.27C29.4443 19.8393 30.1243 19.624 31.031 19.624H33.921C34.7597 19.624 35.3943 19.8393 35.825 20.27C36.2783 20.678 36.505 21.2447 36.505 21.97V28.736C36.505 29.824 36.0857 30.368 35.247 30.368C34.4537 30.368 34.057 29.7673 34.057 28.566V22.752Z" fill="#E5E5E5"/>
</svg>
