<svg width="58" height="46" viewBox="0 0 58 46" fill="none" xmlns="http://www.w3.org/2000/svg">
<path d="M17.224 28.402C16.408 28.402 16 27.858 16 26.77V14.564C16 13.5213 16.408 13 17.224 13C18.0173 13 18.414 13.5213 18.414 14.564V26.77C18.414 27.858 18.0173 28.402 17.224 28.402Z" fill="#E5E5E5"/>
<path d="M30.505 25.886C30.505 26.7247 30.2783 27.3253 29.825 27.688C29.3943 28.0507 28.7597 28.232 27.921 28.232H25.099C23.2857 28.232 22.379 27.45 22.379 25.886V20.004C22.379 19.2787 22.5943 18.7007 23.025 18.27C23.4557 17.8393 24.1243 17.624 25.031 17.624H27.921C28.7597 17.624 29.3943 17.8393 29.825 18.27C30.2783 18.7007 30.505 19.29 30.505 20.038V25.886ZM28.057 25.002V20.854C28.057 19.5167 27.581 18.848 26.629 18.848H26.187C25.303 18.848 24.861 19.5733 24.861 21.024V25.036C24.861 26.396 25.3143 27.076 26.221 27.076H26.731C27.615 27.076 28.057 26.3847 28.057 25.002Z" fill="#E5E5E5"/>
<path d="M38.5625 31.122C39.3785 31.122 39.7865 30.8047 39.7865 30.17V29.286C39.7865 28.5833 39.3671 28.232 38.5285 28.232H36.7605C35.8538 28.232 35.1851 28.062 34.7545 27.722C34.3238 27.3593 34.1085 26.77 34.1085 25.954V19.936C34.1085 19.2107 34.3238 18.644 34.7545 18.236C35.1851 17.828 35.8538 17.624 36.7605 17.624H39.6505C40.4891 17.624 41.1238 17.828 41.5545 18.236C42.0078 18.644 42.2345 19.2107 42.2345 19.936V29.966C42.2345 30.782 42.0078 31.3713 41.5545 31.734C41.1238 32.0967 40.5005 32.278 39.6845 32.278H35.1625C34.4598 32.278 34.1085 32.0967 34.1085 31.734C34.1085 31.326 34.4711 31.122 35.1965 31.122H38.5625ZM39.7865 24.968V20.854C39.7865 19.494 39.3105 18.814 38.3585 18.814H37.9165C37.0325 18.814 36.5905 19.5393 36.5905 20.99V25.002C36.5905 26.3847 37.0438 27.076 37.9505 27.076H38.4605C39.3445 27.076 39.7865 26.3733 39.7865 24.968Z" fill="#E5E5E5"/>
</svg>
