<svg width="58" height="46" viewBox="0 0 58 46" fill="none" xmlns="http://www.w3.org/2000/svg">
<path d="M17.5776 22.6998V29.128C17.5776 30.376 17.1586 31 16.3205 31C15.4591 31 15.0285 30.376 15.0285 29.128V22.6998C15.0285 21.6402 14.5861 21.1104 13.7015 21.1104C12.9798 21.1104 12.619 21.6402 12.619 22.6998V29.128C12.619 30.376 12.1767 31 11.292 31C10.4307 31 10 30.4584 10 29.3753V22.3113C10 20.6865 10.9428 19.8742 12.8285 19.8742H19.9871C21.7796 19.9213 22.6759 20.7219 22.6759 22.2759V29.3046C22.6759 30.4349 22.2452 31 21.3839 31C20.5225 31 20.0918 30.376 20.0918 29.128V22.6998C20.0918 21.6402 19.6844 21.1104 18.8696 21.1104C18.0083 21.1104 17.5776 21.6402 17.5776 22.6998Z" fill="#E5E5E5"/>
<path d="M34.9881 28.457C34.9881 29.3282 34.7553 29.9522 34.2897 30.3289C33.8474 30.7057 33.1956 30.894 32.3342 30.894H29.4359C27.5735 30.894 26.6423 30.0817 26.6423 28.457V22.3466C26.6423 21.5931 26.8635 20.9926 27.3058 20.5453C27.7481 20.0979 28.4348 19.8742 29.366 19.8742H32.3342C33.1956 19.8742 33.8474 20.0979 34.2897 20.5453C34.7553 20.9926 34.9881 21.6049 34.9881 22.3819V28.457ZM32.4739 27.5386V23.2296C32.4739 21.8403 31.985 21.1457 31.0073 21.1457H30.5533C29.6454 21.1457 29.1914 21.8992 29.1914 23.4062V27.574C29.1914 28.9868 29.657 29.6932 30.5882 29.6932H31.112C32.0199 29.6932 32.4739 28.975 32.4739 27.5386Z" fill="#E5E5E5"/>
<path d="M42.4953 19.8742C43.8223 19.8742 44.4858 19.2502 44.4858 18.0022V16.8013C44.4858 15.6004 44.8932 15 45.708 15C46.5693 15 47 15.5416 47 16.6247V28.5629C47 29.4106 46.7672 30.0228 46.3016 30.3996C45.8593 30.7763 45.1958 30.9647 44.3112 30.9647H41.4128C40.4816 30.9647 39.7832 30.7763 39.3176 30.3996C38.852 29.9993 38.6192 29.3517 38.6192 28.457L38.6542 22.2759C38.6542 20.6983 39.5621 19.8977 41.3779 19.8742H42.4953ZM41.1684 27.574C41.1684 29.0338 41.634 29.7638 42.5652 29.7638H43.0191C43.9969 29.7638 44.4858 29.0456 44.4858 27.6093V23.4415C44.4858 21.8874 44.0318 21.1104 43.1239 21.1104H42.6001C41.6689 21.1104 41.2033 21.8286 41.2033 23.2649L41.1684 27.574Z" fill="#E5E5E5"/>
</svg>
