<svg width="58" height="46" viewBox="0 0 58 46" fill="none" xmlns="http://www.w3.org/2000/svg">
<path d="M32.0489 21.7911C31.236 22.5971 30.9705 23.3847 31.7465 24.1541L34.7675 27.149C35.525 27.9 35.6451 28.5319 35.1278 29.0448C34.6104 29.5577 33.973 29.4386 33.2154 28.6876L30.1945 25.6927C29.4185 24.9234 28.8822 24.9326 28.0877 25.7202L25.1504 28.3854C24.5776 28.9532 24.0788 29.0265 23.6538 28.6052C23.2288 28.1839 23.3027 27.6893 23.8755 27.1215L26.2318 24.4021C27.0263 23.6145 27.3583 22.881 26.5639 22.0934L23.8478 19.4007C23.1087 18.668 22.9979 18.0452 23.5152 17.5324C24.0326 17.0195 24.6608 17.1294 25.3998 17.8621L28.1159 20.5547C28.9104 21.3424 29.2104 21.3332 30.0234 20.5272L33.1877 17.8895C33.779 17.3034 34.2871 17.221 34.712 17.6423C35.137 18.0636 35.0539 18.5673 34.4626 19.1534L32.0489 21.7911Z" fill="#E5E5E5"/>
</svg>
