<svg width="58" height="46" viewBox="0 0 58 46" fill="none" xmlns="http://www.w3.org/2000/svg">
<path d="M34.1461 28.175C34.1461 29.6773 33.2201 30.4284 31.3681 30.4284H25.7103C23.9034 30.4284 23 29.6773 23 28.175V18.1189C23 16.7063 23.9034 16 25.7103 16H31.3681C33.2201 16 34.1461 16.7063 34.1461 18.1189V28.175ZM27.1332 29.184H29.6402C29.8887 29.184 30.1371 29.1504 30.3856 29.0831C30.634 29.0158 30.8599 28.9037 31.0631 28.7468C31.289 28.5898 31.4584 28.3768 31.5713 28.1077C31.7068 27.8163 31.7746 27.4463 31.7746 26.9979V20.8767C31.7746 20.6525 31.6955 20.5404 31.5374 20.5404C31.3342 20.5404 30.9728 20.7983 30.4533 21.314L26.2524 26.897C25.62 27.5024 25.3038 27.9956 25.3038 28.3768C25.3038 28.9149 25.9136 29.184 27.1332 29.184ZM30.826 19.666C31.3455 19.1951 31.6052 18.7579 31.6052 18.3543C31.6052 17.9731 31.3906 17.7041 30.9615 17.5471C30.555 17.3901 30.171 17.3117 29.8096 17.3117H27.4381C26.738 17.3117 26.2072 17.491 25.8458 17.8498C25.507 18.2085 25.3376 18.7915 25.3376 19.5987V25.4508C25.3376 25.6526 25.3941 25.7535 25.507 25.7535C25.6425 25.7535 25.9813 25.518 26.5234 25.0472L30.826 19.666Z" fill="#E5E5E5"/>
</svg>
