<svg width="58" height="46" viewBox="0 0 58 46" fill="none" xmlns="http://www.w3.org/2000/svg">
<path d="M31.2438 23.5673H27.3085C26.0193 23.5673 25.3748 24.3745 25.3748 25.9889V27.3678C25.3748 28.5786 25.9967 29.184 27.2406 29.184H32.8044C33.709 29.184 34.1614 29.3858 34.1614 29.7894C34.1614 30.2154 33.709 30.4284 32.8044 30.4284H25.7479C23.916 30.4284 23 29.7109 23 28.2759V24.6436C23 23.0741 23.9725 22.2893 25.9176 22.2893H29.9546C31.1759 22.2893 31.7866 21.5045 31.7866 19.935V19.0942C31.7866 17.9058 31.1533 17.3117 29.8868 17.3117H24.3231C23.441 17.3117 23 17.1099 23 16.7063C23 16.2354 23.4297 16 24.2892 16H31.3795C33.2341 16 34.1614 16.7736 34.1614 18.3207V21.2131C34.1614 22.7826 33.1888 23.5673 31.2438 23.5673Z" fill="#E5E5E5"/>
</svg>
