<svg width="58" height="46" viewBox="0 0 58 46" fill="none" xmlns="http://www.w3.org/2000/svg">
<path d="M29.6832 29.184C31.1081 29.184 31.8205 28.6347 31.8205 27.536V25.249C31.8205 24.1279 31.1307 23.5673 29.7511 23.5673H24.0856C23.3619 23.5673 23 23.3319 23 22.8611C23 22.4799 23.3619 22.2893 24.0856 22.2893H29.7511C31.1307 22.2893 31.8205 21.7175 31.8205 20.574V18.9933C31.8205 17.8722 31.1081 17.3117 29.6832 17.3117H24.0856C23.3619 17.3117 23 17.1099 23 16.7063C23 16.2354 23.3279 16 23.9838 16H31.3795C33.2341 16 34.1614 16.7736 34.1614 18.3207V28.175C34.1614 29.6773 33.2341 30.4284 31.3795 30.4284H23.9838C23.3279 30.4284 23 30.2154 23 29.7894C23 29.3858 23.3619 29.184 24.0856 29.184H29.6832Z" fill="#E5E5E5"/>
</svg>
