<svg width="58" height="46" viewBox="0 0 58 46" fill="none" xmlns="http://www.w3.org/2000/svg">
<path d="M30.1243 23.5091H25.8836C23.9612 23.5091 23 22.7467 23 21.222V16.5471C23 15.5157 23.3845 15 24.1535 15C24.945 15 25.3408 15.5605 25.3408 16.6816V20.583C25.3408 21.6817 26.008 22.231 27.3424 22.231H29.9546C31.1759 22.231 31.7866 21.6817 31.7866 20.583V16.7489C31.7866 15.583 32.1824 15 32.974 15C33.7882 15 34.1953 15.5269 34.1953 16.5807L34.1614 28.6548C34.1614 29.6414 33.7656 30.1347 32.974 30.1347C32.1598 30.1347 31.7527 29.5405 31.7527 28.3522L31.7866 25.258C31.7866 24.092 31.2325 23.5091 30.1243 23.5091Z" fill="#E5E5E5"/>
</svg>
