<svg width="58" height="46" viewBox="0 0 58 46" fill="none" xmlns="http://www.w3.org/2000/svg">
<path d="M25.9176 23.601C23.9725 23.601 23 22.8498 23 21.3476V18.3207C23 16.7736 23.916 16 25.7479 16H32.8383C33.7203 16 34.1614 16.2354 34.1614 16.7063C34.1614 17.1099 33.7203 17.3117 32.8383 17.3117H27.3085C26.0193 17.3117 25.3748 17.9283 25.3748 19.1615V20.2041C25.3748 21.6166 25.9967 22.3229 27.2406 22.3229H31.2438C33.1888 22.3229 34.1614 23.0741 34.1614 24.5763V28.175C34.1614 29.6773 33.2341 30.4284 31.3795 30.4284H24.3231C23.441 30.4284 23 30.193 23 29.7221C23 29.3634 23.4636 29.184 24.3909 29.184H29.9546C31.1759 29.184 31.7866 28.5562 31.7866 27.3006V25.8544C31.7866 24.3521 31.1533 23.601 29.8868 23.601H25.9176Z" fill="#E5E5E5"/>
</svg>
