<svg width="58" height="46" viewBox="0 0 58 46" fill="none" xmlns="http://www.w3.org/2000/svg">
<path d="M23 28.0405V18.4552C23 16.8184 23.8934 16 25.6801 16H32.4651C33.3245 16 33.7543 16.213 33.7543 16.639C33.7543 17.0875 33.3132 17.3117 32.4312 17.3117H27.3085C25.9967 17.3117 25.3408 18.0628 25.3408 19.5651V20.4059C25.3408 21.6615 25.9628 22.2893 27.2067 22.2893H31.1759C33.0984 22.2893 34.0596 23.018 34.0596 24.4754V28.1077C34.0596 29.6548 33.121 30.4284 31.2438 30.4284H25.714C23.9047 30.4284 23 29.6324 23 28.0405ZM29.6154 23.5673H27.4103C26.0306 23.5673 25.3408 24.3521 25.3408 25.9216V27.4015C25.3408 28.5898 26.008 29.184 27.3424 29.184H29.6832C31.0402 29.184 31.7187 28.4329 31.7187 26.9306V25.4508C31.7187 24.1952 31.0176 23.5673 29.6154 23.5673Z" fill="#E5E5E5"/>
</svg>
