<svg width="58" height="46" viewBox="0 0 58 46" fill="none" xmlns="http://www.w3.org/2000/svg">
<path d="M34.3649 18.0852V18.657C34.3649 19.1951 34.2066 19.7332 33.89 20.2713C33.5733 20.787 33.1549 21.3476 32.6347 21.953L30.1582 24.6772C29.932 24.9687 29.7624 25.2826 29.6493 25.6189C29.5589 25.9553 29.5136 26.314 29.5136 26.6952V29.1504C29.5136 30.249 29.1065 30.7984 28.2923 30.7984C27.4329 30.7984 27.0032 30.3387 27.0032 29.4194V26.4597C27.0032 25.3835 27.4555 24.3633 28.3602 23.3992L30.9385 20.6413C31.1873 20.3498 31.3795 20.0359 31.5152 19.6996C31.6735 19.3633 31.7527 19.0045 31.7527 18.6233V18.287C31.7527 17.6368 31.4134 17.3117 30.7349 17.3117H24.3231C23.441 17.3117 23 17.0875 23 16.639C23 16.213 23.4297 16 24.2892 16H31.7527C33.4942 16 34.3649 16.6951 34.3649 18.0852Z" fill="#E5E5E5"/>
</svg>
