<svg width="58" height="46" viewBox="0 0 58 46" fill="none" xmlns="http://www.w3.org/2000/svg">
<path d="M29.6493 23.601H27.3424C25.9854 23.601 25.3069 24.3745 25.3069 25.9216V27.4015C25.3069 28.5898 25.9741 29.184 27.3085 29.184H29.7172C31.0516 29.184 31.7187 28.4329 31.7187 26.9306V25.4508C31.7187 24.2176 31.0289 23.601 29.6493 23.601ZM29.6493 17.3117H27.3424C25.9854 17.3117 25.3069 18.0516 25.3069 19.5314V20.4059C25.3069 21.6839 25.9741 22.3229 27.3085 22.3229H29.7172C31.0516 22.3229 31.7187 21.5382 31.7187 19.9686V19.0606C31.7187 17.8946 31.0289 17.3117 29.6493 17.3117ZM34.0257 28.1414C34.0257 29.6661 33.1888 30.4284 31.5152 30.4284H25.5105C23.8368 30.4284 23 29.6661 23 28.1414V18.3543C23 16.7848 23.8481 16 25.5444 16H31.4813C33.1775 16 34.0257 16.7848 34.0257 18.3543V28.1414Z" fill="#E5E5E5"/>
</svg>
