<svg width="58" height="46" viewBox="0 0 58 46" fill="none" xmlns="http://www.w3.org/2000/svg">
<path d="M34.331 18.4215V28.0068C34.331 29.6212 33.3924 30.4284 31.5152 30.4284H24.3231C23.441 30.4284 23 30.2154 23 29.7894C23 29.3858 23.4523 29.184 24.357 29.184H29.8868C31.1533 29.184 31.7866 28.3992 31.7866 26.8297V25.6862C31.7866 24.4754 31.1759 23.87 29.9546 23.87H25.9176C23.9725 23.87 23 23.1301 23 21.6503V18.3543C23 16.7848 23.9386 16 25.8158 16H31.5152C33.3924 16 34.331 16.8072 34.331 18.4215ZM27.546 22.6256H29.8189C31.1307 22.6256 31.7866 21.8633 31.7866 20.3386V19.1615C31.7866 17.9507 31.142 17.3453 29.8529 17.3453H27.512C26.2003 17.3453 25.5444 18.0516 25.5444 19.4642V20.6749C25.5444 21.9754 26.2116 22.6256 27.546 22.6256Z" fill="#E5E5E5"/>
</svg>
