<svg width="12" height="11" viewBox="0 0 12 11" fill="none" xmlns="http://www.w3.org/2000/svg">
<path d="M6.76676 5.03001C6.47343 5.03001 6.32676 5.17001 6.32676 5.45001V6.54001C6.32676 6.81334 6.23343 6.95001 6.04676 6.95001C5.8601 6.95001 5.76676 6.81334 5.76676 6.54001V5.45001C5.76676 5.17001 5.62343 5.03001 5.33676 5.03001H4.36676C4.1601 5.03001 4.05676 4.95334 4.05676 4.80001C4.05676 4.64668 4.1601 4.57001 4.36676 4.57001H5.33676C5.62343 4.57001 5.76676 4.42668 5.76676 4.14001V3.16001C5.76676 2.89334 5.8601 2.76001 6.04676 2.76001C6.23343 2.76001 6.32676 2.89334 6.32676 3.16001V4.14001C6.32676 4.42668 6.47343 4.57001 6.76676 4.57001H7.72676C7.9401 4.57001 8.04676 4.64668 8.04676 4.80001C8.04676 4.95334 7.9401 5.03001 7.72676 5.03001H6.76676Z" fill="#E5E5E5"/>
</svg>
