<svg width="58" height="46" viewBox="0 0 58 46" fill="none" xmlns="http://www.w3.org/2000/svg">
<path d="M36.4242 18.4343C36.8606 18.4343 37.1394 18.2488 37.1394 17.7696V16.9816C37.1394 16.5023 36.8848 16.3243 36.4242 16.3243H35C34.3697 16.3243 34 15.9724 34 15.3917V13.5945C34 13.1982 34.1414 13 34.4242 13C34.7071 13 34.8485 13.2074 34.8485 13.6221V14.9908C34.8485 15.4793 35.0657 15.7235 35.5424 15.7235H36.4242C36.901 15.7235 37.1394 15.4793 37.1394 14.9908V13.6221C37.1394 13.2074 37.2808 13 37.5636 13C37.8545 13 38 13.2028 38 13.6083L37.9879 18.1014C37.9798 18.7005 37.6646 19 37.0424 19H34.3515C34.1172 19 34 18.9124 34 18.7373C34 18.5714 34.101 18.4343 34.3515 18.4343H36.4242Z" fill="#E5E5E5"/>
<path d="M28.8978 27.7545C28.765 27.6179 28.6418 27.5496 28.528 27.5496C28.4142 27.5496 28.3004 27.6179 28.1866 27.7545L25.9961 31.1216C25.503 31.7072 25.0858 32 24.7444 32C24.5547 32 24.384 31.9122 24.2323 31.7365C24.0806 31.5608 24.0047 31.3851 24.0047 31.2095C23.9858 31.0533 24.0237 30.8971 24.1185 30.741C24.2134 30.5848 24.3177 30.4092 24.4315 30.214L26.6789 26.7004C27.0771 26.1539 27.2763 25.6659 27.2763 25.2365C27.2763 24.7875 27.0676 24.3288 26.6504 23.8604L24.4315 20.7568C24.3177 20.5811 24.2134 20.4249 24.1185 20.2883C24.0237 20.1321 23.9858 19.976 24.0047 19.8198C24.0047 19.6441 24.0711 19.4685 24.2039 19.2928C24.3366 19.0976 24.5073 19 24.7159 19C25.0763 19 25.503 19.283 25.9961 19.8491L28.1866 22.8941C28.2625 23.0113 28.3857 23.0698 28.5564 23.0698C28.6512 23.0698 28.765 23.0113 28.8978 22.8941L31.0598 19.8491C31.496 19.283 31.9038 19 32.2831 19C32.5107 19 32.6814 19.0976 32.7952 19.2928C32.9279 19.4685 32.9943 19.6539 32.9943 19.8491C33.0133 20.0053 32.9848 20.1517 32.909 20.2883C32.8521 20.4249 32.7572 20.5811 32.6245 20.7568L30.434 23.8604C29.9788 24.3288 29.7512 24.7875 29.7512 25.2365C29.7512 25.6854 29.9693 26.1734 30.4055 26.7004L32.6245 30.214C32.7572 30.4092 32.8521 30.5848 32.909 30.741C32.9848 30.8776 33.0133 31.024 32.9943 31.1802C32.9943 31.3949 32.9184 31.5901 32.7667 31.7658C32.615 31.9219 32.4443 32 32.2547 32C31.8943 32 31.496 31.7072 31.0598 31.1216L28.8978 27.7545Z" fill="#E5E5E5"/>
</svg>
