<svg width="58" height="46" viewBox="0 0 58 46" fill="none" xmlns="http://www.w3.org/2000/svg">
<path d="M21.032 25.574H18.822C16.9407 25.574 16 24.928 16 23.636V22.208C16 20.5987 16.9067 19.794 18.72 19.794H22.528C23.3893 19.794 23.82 19.9753 23.82 20.338C23.82 20.7687 23.3667 20.984 22.46 20.984H19.434C18.7767 20.984 18.448 21.358 18.448 22.106V23.602C18.448 24.1913 18.7767 24.486 19.434 24.486H21.372C23.0947 24.486 24.024 25.1887 24.16 26.594V27.954C24.16 29.586 23.2647 30.402 21.474 30.402H17.258C16.4193 30.402 16 30.1867 16 29.756C16 29.348 16.4533 29.144 17.36 29.144H21.032C21.6893 29.144 22.018 28.7813 22.018 28.056V26.526C22.018 25.8913 21.6893 25.574 21.032 25.574Z" fill="#E5E5E5"/>
<path d="M29.2595 16.836C28.3981 16.836 27.9675 16.53 27.9675 15.918C27.9675 15.306 28.3981 15 29.2595 15C30.0755 15 30.4835 15.306 30.4835 15.918C30.4835 16.53 30.0755 16.836 29.2595 16.836ZM29.2595 30.538C28.4208 30.538 28.0015 30.0167 28.0015 28.974V21.46C28.0015 20.3947 28.4208 19.862 29.2595 19.862C30.0528 19.862 30.4495 20.372 30.4495 21.392V28.94C30.4495 30.0053 30.0528 30.538 29.2595 30.538Z" fill="#E5E5E5"/>
<path d="M39.9565 22.922C39.9565 21.6527 39.4805 21.018 38.5285 21.018H38.0865C37.1798 21.018 36.7265 21.698 36.7265 23.058V28.736C36.7265 29.9373 36.3298 30.538 35.5365 30.538C34.6751 30.538 34.2445 30.0167 34.2445 28.974V22.174C34.2445 21.4487 34.4598 20.8707 34.8905 20.44C35.3438 20.0093 36.0238 19.794 36.9305 19.794H39.8205C40.6591 19.794 41.2938 20.0093 41.7245 20.44C42.1778 20.848 42.4045 21.4147 42.4045 22.14V28.906C42.4045 29.994 41.9851 30.538 41.1465 30.538C40.3531 30.538 39.9565 29.9373 39.9565 28.736V22.922Z" fill="#E5E5E5"/>
</svg>
