<svg width="58" height="46" viewBox="0 0 58 46" fill="none" xmlns="http://www.w3.org/2000/svg">
<path d="M16.258 15C17.0513 15 17.448 15.5893 17.448 16.768V17.89C17.448 19.0913 18.1053 19.692 19.42 19.692H20.066C20.9727 19.692 21.426 19.8847 21.426 20.27C21.426 20.678 20.9727 20.882 20.066 20.882H19.42C18.1053 20.882 17.448 21.6753 17.448 23.262V27.002C17.448 28.3393 18.094 29.008 19.386 29.008H20.202C21.086 29.008 21.528 29.2233 21.528 29.654C21.528 30.0847 21.12 30.3 20.304 30.3H17.482C15.8273 30.3 15 29.4727 15 27.818V16.598C15 15.5327 15.4193 15 16.258 15Z" fill="#E5E5E5"/>
<path d="M28.3952 19.046H25.5052C24.6439 19.046 24.2132 18.842 24.2132 18.434C24.2132 18.0487 24.6212 17.856 25.4372 17.856H29.4832C31.1605 17.856 31.9992 18.7173 31.9992 20.44V27.852C31.9992 29.484 31.1605 30.3 29.4832 30.3H26.6272C24.7912 30.3 23.8732 29.6313 23.8732 28.294V23.874C23.8732 23.3073 24.0885 22.854 24.5192 22.514C24.9499 22.1513 25.6185 21.97 26.5252 21.97H28.3272C29.1432 21.97 29.5512 21.562 29.5512 20.746V20.406C29.5512 19.4993 29.1659 19.046 28.3952 19.046ZM26.2872 24.792V27.376C26.2872 28.5547 26.8425 29.144 27.9532 29.144C29.0185 29.144 29.5512 28.5547 29.5512 27.376V24.792C29.5512 23.6813 29.0185 23.126 27.9532 23.126C26.8425 23.126 26.2872 23.6813 26.2872 24.792Z" fill="#E5E5E5"/>
<path d="M41.2467 22.82C41.2467 21.5507 40.7707 20.916 39.8187 20.916H39.3767C38.47 20.916 38.0167 21.596 38.0167 22.956V28.634C38.0167 29.8353 37.62 30.436 36.8267 30.436C35.9653 30.436 35.5347 29.9147 35.5347 28.872V22.072C35.5347 21.3467 35.75 20.7687 36.1807 20.338C36.634 19.9073 37.314 19.692 38.2207 19.692H41.1107C41.9493 19.692 42.584 19.9073 43.0147 20.338C43.468 20.746 43.6947 21.3127 43.6947 22.038V28.804C43.6947 29.892 43.2753 30.436 42.4367 30.436C41.6433 30.436 41.2467 29.8353 41.2467 28.634V22.82Z" fill="#E5E5E5"/>
</svg>
