<svg width="58" height="46" viewBox="0 0 58 46" fill="none" xmlns="http://www.w3.org/2000/svg">
<path d="M29.8978 25.7545C29.765 25.6179 29.6418 25.5496 29.528 25.5496C29.4142 25.5496 29.3004 25.6179 29.1866 25.7545L26.9961 29.1216C26.503 29.7072 26.0858 30 25.7444 30C25.5547 30 25.384 29.9122 25.2323 29.7365C25.0806 29.5608 25.0047 29.3851 25.0047 29.2095C24.9858 29.0533 25.0237 28.8971 25.1185 28.741C25.2134 28.5848 25.3177 28.4092 25.4315 28.214L27.6789 24.7004C28.0771 24.1539 28.2763 23.6659 28.2763 23.2365C28.2763 22.7875 28.0676 22.3288 27.6504 21.8604L25.4315 18.7568C25.3177 18.5811 25.2134 18.4249 25.1185 18.2883C25.0237 18.1321 24.9858 17.976 25.0047 17.8198C25.0047 17.6441 25.0711 17.4685 25.2039 17.2928C25.3366 17.0976 25.5073 17 25.7159 17C26.0763 17 26.503 17.283 26.9961 17.8491L29.1866 20.8941C29.2625 21.0113 29.3857 21.0698 29.5564 21.0698C29.6512 21.0698 29.765 21.0113 29.8978 20.8941L32.0598 17.8491C32.496 17.283 32.9038 17 33.2831 17C33.5107 17 33.6814 17.0976 33.7952 17.2928C33.9279 17.4685 33.9943 17.6539 33.9943 17.8491C34.0133 18.0053 33.9848 18.1517 33.909 18.2883C33.8521 18.4249 33.7572 18.5811 33.6245 18.7568L31.434 21.8604C30.9788 22.3288 30.7512 22.7875 30.7512 23.2365C30.7512 23.6854 30.9693 24.1734 31.4055 24.7004L33.6245 28.214C33.7572 28.4092 33.8521 28.5848 33.909 28.741C33.9848 28.8776 34.0133 29.024 33.9943 29.1802C33.9943 29.3949 33.9184 29.5901 33.7667 29.7658C33.615 29.9219 33.4443 30 33.2547 30C32.8943 30 32.496 29.7072 32.0598 29.1216L29.8978 25.7545Z" fill="#E5E5E5"/>
</svg>
