<svg width="23" height="23" viewBox="0 0 23 23" fill="none" xmlns="http://www.w3.org/2000/svg">
<path d="M11.746 10.782C11.782 10.866 11.824 10.908 11.872 10.908C11.896 10.908 11.932 10.878 11.98 10.818L12.52 9.792C12.664 9.528 12.79 9.33 12.898 9.198C13.018 9.066 13.144 9 13.276 9C13.408 9 13.504 9.048 13.564 9.144C13.624 9.228 13.654 9.342 13.654 9.486C13.654 9.69 13.6 9.918 13.492 10.17L12.7 11.502C12.544 11.658 12.466 11.82 12.466 11.988C12.466 12.18 12.562 12.36 12.754 12.528L13.546 13.86C13.654 14.1 13.708 14.274 13.708 14.382C13.708 14.526 13.66 14.64 13.564 14.724C13.468 14.808 13.366 14.85 13.258 14.85C13.15 14.838 13.036 14.784 12.916 14.688C12.796 14.592 12.682 14.448 12.574 14.256L11.98 13.122C11.944 13.086 11.908 13.068 11.872 13.068C11.836 13.068 11.8 13.086 11.764 13.122L11.188 14.256C10.936 14.664 10.696 14.868 10.468 14.868C10.36 14.868 10.252 14.826 10.144 14.742C10.048 14.646 10 14.544 10 14.436C10 14.268 10.066 14.076 10.198 13.86L10.99 12.528C11.146 12.372 11.224 12.198 11.224 12.006C11.224 11.85 11.164 11.682 11.044 11.502L10.252 10.17C10.18 10.038 10.126 9.918 10.09 9.81C10.066 9.69 10.048 9.582 10.036 9.486C10.036 9.354 10.072 9.246 10.144 9.162C10.216 9.066 10.318 9.018 10.45 9.018C10.714 9.018 10.978 9.276 11.242 9.792L11.746 10.782Z" fill="#E5E5E5"/>
</svg>
