<svg width="23" height="23" viewBox="0 0 23 23" fill="none" xmlns="http://www.w3.org/2000/svg">
<path d="M5.746 10.782C5.782 10.866 5.824 10.908 5.872 10.908C5.896 10.908 5.932 10.878 5.98 10.818L6.52 9.792C6.664 9.528 6.79 9.33 6.898 9.198C7.018 9.066 7.144 9 7.276 9C7.408 9 7.504 9.048 7.564 9.144C7.624 9.228 7.654 9.342 7.654 9.486C7.654 9.69 7.6 9.918 7.492 10.17L6.7 11.502C6.544 11.658 6.466 11.82 6.466 11.988C6.466 12.18 6.562 12.36 6.754 12.528L7.546 13.86C7.654 14.1 7.708 14.274 7.708 14.382C7.708 14.526 7.66 14.64 7.564 14.724C7.468 14.808 7.366 14.85 7.258 14.85C7.15 14.838 7.036 14.784 6.916 14.688C6.796 14.592 6.682 14.448 6.574 14.256L5.98 13.122C5.944 13.086 5.908 13.068 5.872 13.068C5.836 13.068 5.8 13.086 5.764 13.122L5.188 14.256C4.936 14.664 4.696 14.868 4.468 14.868C4.36 14.868 4.252 14.826 4.144 14.742C4.048 14.646 4 14.544 4 14.436C4 14.268 4.066 14.076 4.198 13.86L4.99 12.528C5.146 12.372 5.224 12.198 5.224 12.006C5.224 11.85 5.164 11.682 5.044 11.502L4.252 10.17C4.18 10.038 4.126 9.918 4.09 9.81C4.066 9.69 4.048 9.582 4.036 9.486C4.036 9.354 4.072 9.246 4.144 9.162C4.216 9.066 4.318 9.018 4.45 9.018C4.714 9.018 4.978 9.276 5.242 9.792L5.746 10.782Z" fill="#E5E5E5"/>
<path d="M10.0906 14.418C9.63461 14.418 9.40661 14.22 9.40661 13.824C9.40661 13.368 9.63461 13.14 10.0906 13.14C10.5466 13.14 10.7746 13.368 10.7746 13.824C10.7746 14.22 10.5466 14.418 10.0906 14.418Z" fill="#E5E5E5"/>
<path d="M13.5887 14.418C13.1327 14.418 12.9047 14.22 12.9047 13.824C12.9047 13.368 13.1327 13.14 13.5887 13.14C14.0447 13.14 14.2727 13.368 14.2727 13.824C14.2727 14.22 14.0447 14.418 13.5887 14.418Z" fill="#E5E5E5"/>
<path d="M17.7167 10.782C17.7527 10.866 17.7947 10.908 17.8427 10.908C17.8667 10.908 17.9027 10.878 17.9507 10.818L18.4907 9.792C18.6347 9.528 18.7607 9.33 18.8687 9.198C18.9887 9.066 19.1147 9 19.2467 9C19.3787 9 19.4747 9.048 19.5347 9.144C19.5947 9.228 19.6247 9.342 19.6247 9.486C19.6247 9.69 19.5707 9.918 19.4627 10.17L18.6707 11.502C18.5147 11.658 18.4367 11.82 18.4367 11.988C18.4367 12.18 18.5327 12.36 18.7247 12.528L19.5167 13.86C19.6247 14.1 19.6787 14.274 19.6787 14.382C19.6787 14.526 19.6307 14.64 19.5347 14.724C19.4387 14.808 19.3367 14.85 19.2287 14.85C19.1207 14.838 19.0067 14.784 18.8867 14.688C18.7667 14.592 18.6527 14.448 18.5447 14.256L17.9507 13.122C17.9147 13.086 17.8787 13.068 17.8427 13.068C17.8067 13.068 17.7707 13.086 17.7347 13.122L17.1587 14.256C16.9067 14.664 16.6667 14.868 16.4387 14.868C16.3307 14.868 16.2227 14.826 16.1147 14.742C16.0187 14.646 15.9707 14.544 15.9707 14.436C15.9707 14.268 16.0367 14.076 16.1687 13.86L16.9607 12.528C17.1167 12.372 17.1947 12.198 17.1947 12.006C17.1947 11.85 17.1347 11.682 17.0147 11.502L16.2227 10.17C16.1507 10.038 16.0967 9.918 16.0607 9.81C16.0367 9.69 16.0187 9.582 16.0067 9.486C16.0067 9.354 16.0427 9.246 16.1147 9.162C16.1867 9.066 16.2887 9.018 16.4207 9.018C16.6847 9.018 16.9487 9.276 17.2127 9.792L17.7167 10.782Z" fill="#E5E5E5"/>
</svg>
